# xmcd CD database file
# Copyright (C) 1993-1998 Ti Kan
# 
# Track frame offsets:
#     182
#     11990
#     26805
#     38770
#     50595
#     64730
#     76307
#     87200
#     100070
#     112357
#     124295
#     137152
#     148315
#     161427
#     172625
#     186597
#     198155
#     210442
#     220450
#     233700
# 
# Disc length: 3297 seconds
# 
# Revision: 1
# Processed by: cddbd v1.4b41PL1 Copyright (c) Steve Scherf et al.
# Submitted via: DiscPlay 4.0.4
# 
DISCID=250cdf14
DTITLE=Howlin' Wolf - Spoonful
DYEAR=1900
DGENRE=
TTITLE0=Howlin' for my darling
TTITLE1=Decoration day
TTITLE2=Dorothy Mae
TTITLE3=Oh Red
TTITLE4=Smokestack lightning
TTITLE5=Sittin' on the top of the world
TTITLE6=Wang dang doodle
TTITLE7=Back door man
TTITLE8=Spoonful
TTITLE9=Build for comfort
TTITLE10=Killing floor
TTITLE11=The red rooster
TTITLE12=I ain't superstitious
TTITLE13=You'll be mine
TTITLE14=Three hundred pounds of joy
TTITLE15=Down in the bottom
TTITLE16=How many more years
TTITLE17=Do the do
TTITLE18=Evil
TTITLE19=Rocking Daddy
EXTD=
EXTT0=
EXTT1=
EXTT2=
EXTT3=
EXTT4=
EXTT5=
EXTT6=
EXTT7=
EXTT8=
EXTT9=
EXTT10=
EXTT11=
EXTT12=
EXTT13=
EXTT14=
EXTT15=
EXTT16=
EXTT17=
EXTT18=
EXTT19=
PLAYORDER=
